<?xml version="1.0" standalone="no"?>
<!DOCTYPE svg PUBLIC "-//W3C//DTD SVG 20010904//EN"
 "http://www.w3.org/TR/2001/REC-SVG-20010904/DTD/svg10.dtd">
<svg version="1.0" xmlns="http://www.w3.org/2000/svg"
 width="260.000000pt" height="260.000000pt" viewBox="0 0 260.000000 260.000000"
 preserveAspectRatio="xMidYMid meet">
<metadata>
Created by potrace 1.11, written by Peter Selinger 2001-2013
</metadata>
<g transform="translate(0.000000,260.000000) scale(0.100000,-0.100000)"
fill="#000000" stroke="none">
<path d="M1140 2246 c-213 -63 -370 -210 -449 -418 -9 -23 -17 -28 -46 -29
-19 -1 -38 -2 -42 -3 -5 -1 -30 -5 -58 -10 -27 -4 -87 -25 -132 -47 -273 -131
-388 -465 -255 -738 48 -97 150 -202 242 -248 115 -58 155 -63 461 -63 250 0
277 2 291 18 34 40 27 91 -16 109 -11 5 -127 8 -256 7 -263 -2 -338 7 -422 53
-72 39 -141 111 -179 188 -27 55 -33 79 -36 158 -5 81 -2 100 21 160 74 197
270 310 469 272 109 -21 236 -124 288 -231 33 -70 59 -94 92 -86 62 14 72 64
31 146 -61 122 -174 228 -292 276 -39 15 -38 25 19 122 70 120 210 219 346
245 273 52 532 -111 618 -389 19 -62 40 -78 105 -76 151 5 311 -95 379 -236
26 -54 49 -155 44 -196 -10 -84 -19 -116 -55 -188 -36 -75 -39 -86 -27 -108
16 -31 66 -46 94 -29 11 7 32 34 48 59 124 213 89 495 -84 668 -92 91 -186
137 -342 166 -35 6 -40 12 -61 64 -76 186 -242 331 -444 387 -101 28 -252 26
-352 -3z"/>
<path d="M1695 1428 c-36 -24 -247 -125 -327 -157 l-58 -23 0 -268 c0 -223 3
-274 16 -306 41 -98 190 -237 332 -309 82 -42 98 -41 190 7 138 73 275 199
318 293 23 48 24 58 24 316 l0 266 -102 43 c-57 23 -156 69 -221 101 -64 33
-123 59 -130 58 -6 0 -25 -10 -42 -21z"/>
</g>
</svg>
