<svg xmlns="http://www.w3.org/2000/svg" style="display:none"><symbol id="envelope" viewBox="0 0 483.3 483.3"><g fill="#FFF"><path d="M424.3 57.75H59.1c-32.6 0-59.1 26.5-59.1 59.1v249.6c0 32.6 26.5 59.1 59.1 59.1h365.1c32.6 0 59.1-26.5 59.1-59.1v-249.5c.1-32.6-26.4-59.2-59-59.2zm32.1 308.7c0 17.7-14.4 32.1-32.1 32.1H59.1c-17.7 0-32.1-14.4-32.1-32.1v-249.5c0-17.7 14.4-32.1 32.1-32.1h365.1c17.7 0 32.1 14.4 32.1 32.1v249.5h.1z"/><path d="M304.8 238.55l118.2-106c5.5-5 6-13.5 1-19.1-5-5.5-13.5-6-19.1-1l-163 146.3-31.8-28.4c-.1-.1-.2-.2-.2-.3-.7-.7-1.4-1.3-2.2-1.9L78.3 112.35c-5.6-5-14.1-4.5-19.1 1.1-5 5.6-4.5 14.1 1.1 19.1l119.6 106.9-119.1 111.5c-5.4 5.1-5.7 13.6-.6 19.1 2.7 2.8 6.3 4.3 9.9 4.3 3.3 0 6.6-1.2 9.2-3.6l120.9-113.1 32.8 29.3c2.6 2.3 5.8 3.4 9 3.4s6.5-1.2 9-3.5l33.7-30.2 120.2 114.2c2.6 2.5 6 3.7 9.3 3.7 3.6 0 7.1-1.4 9.8-4.2 5.1-5.4 4.9-14-.5-19.1l-118.7-112.7z"/></g></symbol><symbol id="mail" viewBox="0 0 31.012 31.012"><g fill="#FFF"><path d="M25.109 21.51a.495.495 0 0 1-.342-.136l-5.754-5.398a.5.5 0 1 1 .685-.728l5.754 5.398a.5.5 0 0 1-.343.864zM5.902 21.51a.5.5 0 0 1-.343-.864l5.756-5.398a.5.5 0 0 1 .685.728l-5.756 5.398a.495.495 0 0 1-.342.136z"/><path d="M28.512 26.529H2.5a2.503 2.503 0 0 1-2.5-2.5V6.982c0-1.379 1.122-2.5 2.5-2.5h26.012c1.378 0 2.5 1.121 2.5 2.5v17.047c0 1.379-1.122 2.5-2.5 2.5zM2.5 5.482c-.827 0-1.5.673-1.5 1.5v17.047c0 .827.673 1.5 1.5 1.5h26.012c.827 0 1.5-.673 1.5-1.5V6.982c0-.827-.673-1.5-1.5-1.5H2.5z"/><path d="M15.506 18.018c-.665 0-1.33-.221-1.836-.662L.83 6.155a.501.501 0 0 1-.049-.706.503.503 0 0 1 .706-.048l12.84 11.2c.639.557 1.719.557 2.357 0L29.508 5.419a.5.5 0 0 1 .658.754L17.342 17.355c-.507.442-1.171.663-1.836.663z"/></g></symbol><symbol id="phone" viewBox="0 0 32.667 32.667"><path d="M16.333 0C7.327 0 0 7.327 0 16.334c0 9.006 7.326 16.333 16.333 16.333a1.006 1.006 0 1 0 0-2.013c-7.896 0-14.318-6.424-14.318-14.319 0-7.896 6.422-14.32 14.318-14.32S30.65 8.439 30.65 16.335c0 3.299-1.756 6.571-4.269 7.955a6.172 6.172 0 0 1-2.959.761 4.73 4.73 0 0 0 1.591-1.531c.08-.121.186-.226.238-.359.328-.789.357-1.684.555-2.516.243-1.066-4.658-3.143-5.084-1.815-.154.493-.39 2.048-.699 2.458-.275.365-.953.193-1.377-.168-1.117-.952-2.364-2.352-3.458-3.457l.002-.001a3.969 3.969 0 0 0-.092-.091l-.093-.092c-1.106-1.093-2.506-2.338-3.457-3.458-.36-.424-.534-1.1-.168-1.376.41-.31 1.966-.543 2.458-.698 1.326-.425-.75-5.329-1.816-5.084-.832.195-1.727.225-2.516.552-.134.056-.238.16-.359.24-2.799 1.775-3.16 6.083-.428 9.292a75.688 75.688 0 0 0 3.245 3.576l-.006.004c.031.031.063.06.095.09.03.031.059.062.088.095l.006-.006c1.16 1.118 2.535 2.764 4.769 4.255 4.703 3.141 8.312 2.264 10.438 1.098 3.67-2.021 5.312-6.338 5.312-9.719C32.667 7.327 25.339 0 16.333 0z" fill="#FFF"/></symbol></svg>